<svg width="1500" height="500" viewBox="0 0 1500 500" fill="none" xmlns="http://www.w3.org/2000/svg">
<rect width="1500" height="500" fill="black"/>
<path d="M676.968 275.592L670.056 293H656.104L686.312 213.256H698.088L727.528 293H713.448L706.92 275.592H676.968ZM691.432 232.328L680.168 265.224H703.336L691.432 232.328ZM767.454 288.264C764.126 292.531 758.878 294.664 751.71 294.664C744.542 294.664 738.825 291.933 734.558 286.472C730.377 281.011 728.286 274.611 728.286 267.272C728.286 259.933 730.419 253.704 734.686 248.584C739.038 243.379 744.585 240.776 751.326 240.776C758.494 240.776 763.785 242.867 767.198 247.048L767.454 205.576H779.87V293H767.454V288.264ZM768.862 267.656C768.862 263.219 767.497 259.421 764.766 256.264C762.035 253.107 758.75 251.528 754.91 251.528C751.07 251.528 747.742 253.107 744.926 256.264C742.195 259.336 740.83 263.176 740.83 267.784C740.83 272.307 742.153 276.147 744.798 279.304C747.529 282.376 750.942 283.912 755.038 283.912C759.134 283.912 762.462 282.419 765.022 279.432C767.582 276.36 768.862 272.435 768.862 267.656ZM810.856 274.44L823.272 242.44H837.096L813.8 294.024H806.376L783.208 242.44H796.904L810.856 274.44ZM888.242 293H876.082V288.392C872.498 292.573 867.165 294.664 860.082 294.664C852.999 294.664 847.325 291.933 843.058 286.472C838.877 281.011 836.786 274.611 836.786 267.272C836.786 259.933 838.919 253.704 843.186 248.584C847.538 243.379 853.085 240.776 859.826 240.776C866.994 240.776 872.413 242.909 876.082 247.176V242.44H888.242V293ZM877.49 267.656C877.49 262.963 876.167 259.123 873.522 256.136C870.877 253.064 867.463 251.528 863.282 251.528C859.186 251.528 855.815 253.021 853.17 256.008C850.61 258.909 849.33 262.792 849.33 267.656C849.33 272.52 850.653 276.445 853.298 279.432C855.943 282.419 859.357 283.912 863.538 283.912C867.719 283.912 871.09 282.461 873.65 279.56C876.21 276.659 877.49 272.691 877.49 267.656ZM911.036 247.048C914.535 242.867 919.697 240.776 926.524 240.776C938.129 240.776 943.932 247.901 943.932 262.152V293H931.644V266.248C931.644 255.581 928.359 250.248 921.788 250.248C914.62 250.248 911.036 255.965 911.036 267.4V293H898.62V242.44H911.036V247.048ZM988.677 255.624C985.52 252.467 981.978 250.888 978.053 250.888C973.445 250.888 969.818 252.552 967.173 255.88C964.528 259.208 963.205 263.304 963.205 268.168C963.205 272.947 964.698 276.872 967.685 279.944C970.672 283.016 974.298 284.552 978.565 284.552C982.234 284.552 985.605 282.931 988.677 279.688V291.592C985.093 293.64 980.954 294.664 976.261 294.664C968.922 294.664 962.821 292.061 957.957 286.856C953.093 281.651 950.661 275.293 950.661 267.784C950.661 260.275 953.136 253.917 958.085 248.712C963.12 243.421 969.392 240.776 976.901 240.776C981.338 240.776 985.264 241.843 988.677 243.976V255.624ZM1007.22 268.936C1007.22 273.8 1008.29 277.811 1010.42 280.968C1012.55 284.125 1015.5 285.704 1019.25 285.704C1025.14 285.704 1028.89 282.803 1030.52 277L1042.29 278.92C1038.45 289.416 1030.77 294.664 1019.25 294.664C1011.57 294.664 1005.43 292.232 1000.82 287.368C996.297 282.419 994.036 276.019 994.036 268.168C994.036 259.891 996.212 253.277 1000.56 248.328C1005 243.293 1010.97 240.776 1018.48 240.776C1026.08 240.776 1031.97 243.165 1036.15 247.944C1040.41 252.637 1042.55 259.08 1042.55 267.272V268.936H1007.22ZM1031.03 262.024C1031.03 258.525 1029.92 255.453 1027.7 252.808C1025.57 250.163 1022.75 248.84 1019.25 248.84C1015.84 248.84 1013.02 250.248 1010.8 253.064C1008.67 255.795 1007.6 258.781 1007.6 262.024H1031.03Z" fill="white"/>
<path d="M578.561 195.038C578.999 195.042 578.999 195.042 579.446 195.045C579.782 195.05 579.782 195.05 580.126 195.055C580.126 194.866 580.126 195.239 580.126 195.055C579.909 195.032 580.336 195.078 580.126 195.055C581.809 195.239 582.941 195.995 583.563 197.719C584.431 200.123 583.806 202.841 583.4 205.294C583.321 205.785 583.321 205.785 583.241 206.285C582.615 210.141 581.929 213.986 581.144 217.816C580.578 220.584 580.126 223.358 579.711 226.15C579.321 228.717 578.825 231.256 578.297 233.8C577.982 235.33 577.699 236.846 577.506 238.395C577.282 240.181 576.921 241.926 576.542 243.688C575.985 246.286 575.485 248.889 575.033 251.506C574.973 251.851 574.913 252.196 574.852 252.551C574.566 254.218 574.288 255.886 574.025 257.557C573.901 258.34 573.775 259.123 573.649 259.907C573.562 260.457 573.479 261.008 573.396 261.56C572.957 264.29 572.309 266.616 570.231 268.605C568.935 269.432 567.691 269.726 566.156 269.441C563.495 268.421 562.349 266.767 561.191 264.356C561.08 264.129 560.969 263.902 560.854 263.667C559.771 261.431 558.739 259.173 557.708 256.914C556.681 254.664 555.618 252.434 554.515 250.218C553.476 250.631 552.914 251.179 552.187 251.994C551.018 253.272 549.798 254.476 548.528 255.66C547.544 256.586 546.634 257.556 545.731 258.555C544.857 259.511 543.948 260.436 543.038 261.361C542.847 261.557 542.655 261.752 542.458 261.953C541.34 263.09 540.206 264.207 539.041 265.3C538.523 265.805 538.041 266.326 537.561 266.864C536.528 268.001 535.44 269.071 534.323 270.132C534.118 270.327 533.914 270.523 533.704 270.724C533.264 271.143 532.824 271.563 532.384 271.982C531.686 272.647 530.989 273.312 530.291 273.978C528.561 275.631 526.828 277.283 525.096 278.934C523.63 280.333 522.164 281.732 520.698 283.132C520.014 283.785 519.329 284.437 518.644 285.089C518.222 285.493 517.799 285.897 517.376 286.301C517.188 286.479 517 286.658 516.806 286.842C515.709 287.892 514.669 288.973 513.66 290.101C512.846 290.989 511.967 291.813 511.089 292.643C510.896 292.826 510.704 293.009 510.505 293.198C509.693 293.971 508.878 294.743 508.064 295.515C507.465 296.083 506.867 296.653 506.269 297.222C506.088 297.393 505.908 297.563 505.722 297.739C504.627 298.781 503.598 299.86 502.589 300.978C502.04 301.578 501.464 302.145 500.87 302.704C500.656 302.906 500.442 303.109 500.221 303.318C500.005 303.521 499.789 303.725 499.566 303.935C499.127 304.348 498.688 304.762 498.251 305.176C498.059 305.356 497.868 305.536 497.671 305.721C497.129 306.243 497.143 306.246 496.474 306.886C494.646 308.405 496.474 306.886 494.646 308.405C495 308.009 496.728 305.98 497.083 305.584C497.397 305.234 497.71 304.884 498.024 304.534C498.818 303.646 499.613 302.759 500.408 301.872C503.775 298.118 507.128 294.35 510.388 290.51C511.82 288.831 513.296 287.189 514.774 285.547C515.225 285.044 515.675 284.539 516.124 284.034C517.47 282.521 518.824 281.021 520.229 279.557C521.406 278.329 522.51 277.057 523.604 275.76C524.236 275.027 524.89 274.322 525.558 273.62C527.346 271.74 528.994 269.754 530.651 267.769C530.5 267.914 530.349 268.059 530.193 268.208C528.323 269.998 528.323 269.998 527.711 270.583C526.826 271.43 525.944 272.279 525.062 273.127C524.085 274.066 523.107 275.004 522.129 275.943C521.614 276.437 521.1 276.931 520.586 277.426C519.84 278.143 519.094 278.859 518.347 279.575C518.119 279.795 517.891 280.015 517.655 280.241C516.752 281.106 515.857 281.962 514.868 282.737C514.06 283.373 513.337 284.047 512.608 284.764C512.38 284.983 512.153 285.202 511.918 285.428C511.685 285.653 511.451 285.879 511.21 286.111C510.676 286.625 510.141 287.14 509.606 287.654C509.341 287.91 509.075 288.167 508.802 288.431C507.483 289.698 506.15 290.922 504.731 292.086C503.67 292.987 502.687 293.964 501.694 294.932C501.279 295.336 500.864 295.74 500.448 296.143C500.178 296.406 500.178 296.406 499.902 296.675C499.321 297.208 498.729 297.712 498.12 298.215C496.908 299.223 495.773 300.29 494.646 301.384C494.441 301.58 494.237 301.777 494.026 301.98C493.38 302.602 492.735 303.224 492.09 303.847C491.239 304.67 490.387 305.491 489.535 306.311C489.344 306.496 489.153 306.681 488.957 306.872C487.845 307.941 486.698 308.95 485.505 309.936C484.726 310.591 483.999 311.283 483.268 311.987C483.05 312.196 483.05 312.196 482.828 312.409C482.374 312.846 481.921 313.283 481.468 313.72C481.156 314.02 480.844 314.32 480.532 314.62C479.776 315.346 479.047 315.994 478.293 316.722C476.676 318.002 476.874 318.097 476.676 318.002C476.977 317.693 478.123 316.277 478.43 315.963C479.99 314.354 481.353 312.657 482.793 310.947C484.866 308.525 487.044 306.184 489.242 303.866C489.877 303.184 490.495 302.492 491.111 301.795C492.756 299.936 494.458 298.141 496.211 296.376C497.266 295.312 498.287 294.228 499.291 293.12C500.142 292.195 501.028 291.301 501.912 290.405C503.47 288.821 505.015 287.227 506.547 285.62C507.516 284.607 508.498 283.607 509.479 282.604C510.676 281.381 511.86 280.152 513.004 278.883C514.497 277.232 516.023 275.624 517.65 274.094C518.164 273.593 518.642 273.073 519.119 272.54C519.873 271.702 520.661 270.914 521.484 270.137C522.482 269.195 523.411 268.22 524.322 267.202C525.042 266.428 525.815 265.71 526.586 264.983C527.141 264.443 527.661 263.886 528.177 263.312C528.875 262.535 529.598 261.802 530.36 261.083C531.117 260.37 531.834 259.643 532.525 258.871C533.673 257.591 534.922 256.413 536.181 255.232C534.333 256.411 532.779 257.917 531.226 259.426C530.7 259.923 530.16 260.382 529.596 260.839C528.253 261.942 527.021 263.15 525.784 264.36C524.733 265.38 523.645 266.337 522.513 267.273C521.508 268.115 520.543 268.997 519.574 269.876C519.139 270.269 518.704 270.663 518.269 271.056C518.052 271.252 517.836 271.448 517.612 271.649C515.106 273.912 512.58 276.155 510.036 278.38C508.938 279.344 507.854 280.322 506.769 281.299C504.59 283.258 502.403 285.205 500.146 287.082C498.949 288.082 497.791 289.117 496.637 290.161C495.136 291.515 493.625 292.855 492.087 294.169C491.207 294.927 490.339 295.695 489.471 296.465C487.511 298.201 485.538 299.923 483.523 301.601C482.584 302.384 481.661 303.183 480.74 303.987C479.14 305.382 477.521 306.751 475.875 308.095C473.727 309.849 470.856 311.971 468.781 313.803C470.777 311.177 468.781 313.803 470.202 311.924C470.777 311.177 470.202 311.924 470.777 311.177C470.95 310.994 471.122 310.81 471.3 310.621C471.475 310.431 471.65 310.242 471.83 310.046C472.325 309.511 472.822 308.977 473.319 308.444C473.665 308.068 474.011 307.69 474.356 307.313C474.509 307.146 474.662 306.979 474.82 306.808C475.254 306.329 475.683 305.847 476.111 305.362C477.859 303.387 479.653 301.467 481.506 299.583C482.51 298.561 483.493 297.528 484.45 296.466C485.524 295.291 486.638 294.149 487.742 293C488.284 292.437 488.824 291.873 489.364 291.308C489.765 290.89 490.166 290.471 490.567 290.053C491.086 289.511 491.604 288.968 492.122 288.425C498.211 282.043 498.211 282.043 501.157 279.305C501.914 278.561 502.619 277.784 503.33 277C504.233 276.019 505.174 275.073 506.114 274.125C507.527 272.695 508.93 271.26 510.316 269.806C511.715 268.342 513.168 266.934 514.65 265.546C515.487 264.757 516.285 263.954 517.049 263.099C518.596 261.384 520.312 259.825 521.997 258.235C523.491 256.817 524.925 255.375 526.286 253.839C524.791 255.035 523.399 256.29 522.031 257.617C521.826 257.814 521.621 258.011 521.41 258.214C520.543 259.049 519.677 259.885 518.812 260.721C518.175 261.335 517.538 261.949 516.901 262.562C516.614 262.84 516.614 262.84 516.321 263.125C515.204 264.199 514.057 265.218 512.854 266.202C511.901 267.005 511.022 267.877 510.134 268.744C508.876 269.961 507.617 271.142 506.249 272.245C505.148 273.193 504.119 274.213 503.083 275.226C502.217 276.067 501.337 276.871 500.403 277.642C499.171 278.66 498.031 279.752 496.892 280.863C495.553 282.17 494.194 283.422 492.745 284.617C492.159 285.106 491.611 285.621 491.072 286.157C490.36 286.847 489.639 287.509 488.871 288.142C487.715 289.094 486.601 290.086 485.487 291.084C485.301 291.251 485.114 291.418 484.922 291.59C483.983 292.431 483.046 293.273 482.111 294.117C481.769 294.424 481.428 294.73 481.086 295.037C480.927 295.181 480.769 295.325 480.605 295.474C479.496 296.465 479.424 296.466 478.848 297.022C478.848 296.832 478.848 297.206 478.848 297.022C478.493 297.366 478.493 297.366 477.957 297.788C476.741 298.777 475.573 299.807 474.41 300.853C472.774 302.32 471.134 303.78 469.476 305.225C468.924 305.708 468.376 306.194 467.83 306.684C466.985 307.326 467.83 306.684 466.985 307.326C466.15 307.886 466.15 307.886 466.15 307.886C464.646 308.845 466.985 307.326 464.646 308.845C465.732 307.566 467.081 305.849 468.182 304.552C468.58 304.084 468.977 303.615 469.374 303.146C470.849 301.409 472.362 299.707 473.887 298.011C474.601 297.217 475.308 296.417 476.011 295.614C477.381 294.053 478.785 292.53 480.225 291.028C480.966 290.252 481.688 289.462 482.408 288.668C482.996 288.027 483.596 287.397 484.196 286.766C485.096 285.813 485.957 284.842 486.797 283.841C488.081 282.322 489.453 280.897 490.844 279.469C491.641 278.652 492.411 277.815 493.175 276.969C494.069 275.993 494.989 275.038 495.903 274.079C496.471 273.479 497.03 272.874 497.583 272.262C498.645 271.091 499.749 269.957 500.851 268.82C501.618 268.027 502.376 267.23 503.113 266.411C504.116 265.301 505.16 264.229 506.205 263.155C506.374 262.981 506.544 262.806 506.718 262.627C507.573 261.751 508.439 260.889 509.328 260.045C509.997 259.408 510.637 258.764 511.243 258.07C512.048 257.176 512.895 256.34 513.772 255.511C514.619 254.71 515.438 253.907 516.209 253.038C517.223 251.902 518.322 250.859 519.439 249.817C520.24 249.063 520.997 248.29 521.731 247.475C522.845 246.242 524.038 245.095 525.249 243.949C525.462 243.747 525.675 243.544 525.894 243.335C526.412 242.843 526.931 242.351 527.45 241.86C526.075 242.867 524.832 243.995 523.576 245.133C523.366 245.322 523.156 245.511 522.94 245.706C521.687 246.837 520.458 247.987 519.25 249.162C518.715 249.664 518.161 250.135 517.591 250.601C516.662 251.364 515.796 252.17 514.936 253.004C513.899 254.008 512.835 254.952 511.714 255.87C510.907 256.555 510.161 257.293 509.405 258.028C508.847 258.554 508.272 259.045 507.678 259.533C506.808 260.249 505.992 260.997 505.186 261.779C504.404 262.538 503.615 263.265 502.767 263.956C501.575 264.933 500.479 265.991 499.384 267.065C498.409 268.016 497.387 268.895 496.334 269.767C495.307 270.631 494.319 271.534 493.327 272.436C490.828 274.696 488.306 276.929 485.742 279.122C484.74 279.982 483.781 280.869 482.839 281.788C482.118 282.466 481.351 283.088 480.586 283.719C480.033 284.189 479.512 284.677 478.994 285.181C478.337 285.82 477.667 286.425 476.957 287.01C475.789 287.974 474.663 288.978 473.537 289.987C471.912 291.444 470.28 292.893 468.636 294.331C468.05 294.844 467.464 295.358 466.879 295.874C462.551 299.689 462.516 299.649 461.096 300.644C463.148 298.049 461.096 300.644 463.101 298.049C465.316 295.768 463.101 298.049 465.316 295.768C466.262 294.639 467.241 293.6 468.337 292.605C468.884 292.074 469.393 291.531 469.903 290.969C470.979 289.782 472.098 288.638 473.228 287.497C474.625 286.083 476.018 284.665 477.393 283.231C479.307 281.239 481.247 279.271 483.187 277.303C483.801 276.679 484.414 276.053 485.026 275.427C486.884 273.529 488.74 271.635 490.691 269.823C491.235 269.288 491.738 268.746 492.244 268.179C493.847 266.411 495.619 264.794 497.358 263.149C498.97 261.625 500.57 260.107 502.028 258.443C502.578 257.85 503.231 257.398 503.877 256.904C504.167 256.592 504.452 256.275 504.733 255.955C506.154 254.383 507.702 252.934 509.243 251.471C509.542 251.186 509.841 250.901 510.14 250.616C510.865 249.925 511.59 249.235 512.317 248.546C511.091 249.543 509.882 250.553 508.697 251.593C507.588 252.562 506.47 253.519 505.336 254.461C504.667 255.024 504.008 255.598 503.349 256.173C502.354 257.034 501.339 257.858 500.293 258.663C498.893 259.746 497.577 260.895 496.264 262.073C495.031 263.172 493.747 264.193 492.433 265.203C491.615 265.849 490.834 266.524 490.053 267.212C488.781 268.332 487.469 269.385 486.125 270.425C484.726 271.526 483.365 272.669 481.999 273.808C480.953 274.679 479.902 275.543 478.848 276.406C477.372 277.615 475.899 278.828 474.428 280.045C474.243 280.198 474.058 280.35 473.867 280.508C473.694 280.651 473.596 280.708 473.418 280.855C473.265 280.981 473.032 281.125 472.875 281.255C472.422 281.644 470.878 282.719 470.452 283.135C470.65 283.229 470.26 283.043 470.452 283.135C475.791 278.011 481.669 272.011 487.011 266.891C489.492 264.514 491.971 262.136 494.45 259.757C496.609 257.684 498.769 255.613 500.931 253.542C502.076 252.445 503.221 251.348 504.364 250.249C505.44 249.216 506.516 248.184 507.593 247.154C507.99 246.774 508.386 246.394 508.781 246.013C509.319 245.496 509.858 244.981 510.398 244.465C510.556 244.312 510.714 244.16 510.876 244.002C511.88 243.093 511.443 243.511 512.025 242.954C511.298 243.65 512.103 242.788 512.025 242.954C512.608 242.397 513.549 241.472 514.104 240.991C514.292 240.825 514.481 240.659 514.675 240.487C514.881 240.308 515.087 240.129 515.3 239.944C516.853 238.573 518.381 237.182 519.868 235.746C520.013 235.606 520.158 235.466 520.308 235.322C521.028 234.625 521.746 233.927 522.462 233.226C522.855 232.846 522.855 232.846 523.256 232.457C523.49 232.229 523.724 232 523.964 231.765C524.54 231.273 523.964 231.765 524.685 231.113C525.122 230.716 524.685 231.113 525.122 230.716C526.361 229.441 527.744 228.309 529.101 227.152C529.787 226.599 529.787 226.599 530.069 225.98C529.802 225.935 529.802 225.935 529.53 225.889C527.753 225.572 526.091 225.123 524.394 224.534C524.144 224.449 523.893 224.364 523.635 224.276C521.751 223.629 519.883 222.943 518.023 222.236C516.3 221.585 514.559 220.994 512.798 220.443C510.143 219.583 509.153 218.53 507.951 216.229C507.803 214.526 507.925 213.683 509.115 212.328C511.173 210.413 514.142 210.073 516.846 209.525C517.537 209.383 518.229 209.24 518.92 209.097C519.224 209.035 519.528 208.974 519.841 208.91C520.836 208.689 521.812 208.421 522.793 208.149C523.53 207.962 524.267 207.777 525.006 207.595C525.214 207.544 525.423 207.492 525.638 207.439C526.08 207.33 526.522 207.221 526.963 207.113C527.616 206.952 528.268 206.79 528.921 206.628C531.205 206.065 533.493 205.521 535.788 205.003C538.377 204.419 540.958 203.807 543.537 203.187C543.733 203.14 543.929 203.093 544.131 203.044C545.958 202.605 547.785 202.165 549.612 201.724C550.818 201.433 552.025 201.143 553.232 200.854C553.426 200.807 553.621 200.76 553.821 200.712C556.589 200.049 559.362 199.415 562.148 198.826C563.778 198.481 565.373 198.069 566.973 197.612C569.163 197.006 571.387 196.515 573.601 195.995C574.118 195.873 574.118 195.873 574.646 195.749C574.959 195.675 575.271 195.602 575.593 195.527C577.549 195.207 577.465 195.207 578.561 195.038Z" fill="white"/>
<path d="M551.252 258.065C551.702 258.053 551.702 258.053 552.161 258.041C553.202 258.201 553.532 258.489 554.162 259.284C554.56 261.419 553.62 263.088 552.416 264.856C551.347 266.147 550.137 267.312 548.924 268.478C548.705 268.694 548.487 268.91 548.262 269.133C547.179 270.194 546.044 271.176 544.869 272.142C544.206 272.709 543.582 273.304 542.958 273.91C541.98 274.86 540.968 275.742 539.911 276.609C539.017 277.373 538.188 278.195 537.348 279.011C536.576 279.739 535.766 280.411 534.944 281.085C534.159 281.754 533.429 282.468 532.699 283.191C532.151 283.702 531.592 284.175 531.011 284.65C529.598 285.831 528.28 287.095 526.96 288.371C526.704 288.618 526.448 288.864 526.185 289.117C525.372 289.898 524.561 290.68 523.75 291.462C522.681 292.493 521.61 293.523 520.54 294.553C520.298 294.786 520.056 295.02 519.807 295.261C518.777 296.252 517.744 297.222 516.636 298.133C515.164 299.345 513.811 300.668 512.445 301.988C512.161 302.262 511.876 302.535 511.591 302.809C510.696 303.669 509.802 304.53 508.908 305.392C507.87 306.392 506.832 307.391 505.792 308.39C505.381 308.785 504.971 309.182 504.56 309.578C503.27 310.818 501.964 312.012 500.577 313.152C499.642 313.938 498.77 314.784 497.894 315.629C497.704 315.812 497.513 315.995 497.317 316.183C496.717 316.759 496.119 317.335 495.52 317.911C495.11 318.305 494.7 318.699 494.29 319.093C493.293 320.051 490.996 322.041 490 323C492.155 320.158 490 323 492.155 320.158C493.001 319.268 493.806 318.361 494.593 317.424C495.501 316.354 496.437 315.322 497.412 314.307C498.582 313.09 499.681 311.835 500.767 310.548C501.766 309.385 502.799 308.252 503.833 307.116C504.855 305.992 505.868 304.861 506.87 303.72C508.034 302.398 509.213 301.089 510.399 299.785C511.473 298.604 512.534 297.416 513.564 296.198C515.692 293.686 517.916 291.249 520.203 288.868C521.074 287.959 521.901 287.036 522.695 286.064C523.756 284.77 524.905 283.577 526.078 282.378C527.237 281.188 528.316 279.95 529.381 278.681C530.226 277.695 531.118 276.752 532.015 275.808C533.212 274.547 534.375 273.256 535.539 271.966C537.173 270.156 538.813 268.354 540.491 266.581C541.028 266.011 541.558 265.435 542.085 264.856C542.424 264.485 542.764 264.113 543.103 263.742C543.408 263.406 543.408 263.406 543.719 263.063C548.286 258.101 548.286 258.101 551.252 258.065Z" fill="white"/>
<path d="M519.907 226.315C521.578 226.715 521.828 228.475 521.604 229.149C521.244 230.714 516.966 236.071 514.001 238.429C513.332 238.973 512.666 239.52 512 240.066C511.823 240.211 511.645 240.356 511.463 240.505C510.433 241.349 509.419 242.205 508.416 243.078C507.471 243.901 506.504 244.682 505.506 245.447C503.741 246.812 502.103 248.298 500.452 249.788C499.542 250.608 498.614 251.404 497.667 252.184C497.008 252.732 496.365 253.294 495.72 253.857C494.69 254.749 493.637 255.6 492.556 256.434C491.458 257.283 490.445 258.16 489.463 259.129C488.257 260.292 486.644 261.831 485.48 262.667C485.48 262.478 485.48 262.851 485.48 262.667C485.028 263.055 484.557 263.423 484.079 263.782C482.56 264.941 481.135 266.164 479.722 267.439C479.077 267.961 479.077 268.02 478.495 268.518C478.495 268.328 478.495 268.702 478.495 268.518C478.055 268.894 477.597 269.25 477.131 269.597C475.837 270.586 474.609 271.612 473.402 272.697C472.275 273.708 471.136 274.68 469.928 275.605C468.267 276.881 466.725 278.265 465.173 279.66C464.288 280.454 463.384 281.223 462.466 281.982C461.787 282.547 461.12 283.124 460.452 283.701C459.201 284.781 456 286.973 456 286.973C456.794 286.054 456 286.973 456.794 286.054C457.754 285.014 456.794 286.054 457.754 285.014C457.981 284.8 458.197 284.542 458.431 284.322C458.672 284.1 458.912 283.878 459.16 283.649C460.652 282.26 462.109 280.87 463.465 279.357C464.253 278.483 465.082 277.647 465.908 276.806C467.365 275.323 467.365 275.323 468.799 273.82C470.717 271.781 472.725 269.843 474.767 267.918C475.99 266.76 477.162 265.584 478.283 264.335C479.192 263.336 480.146 262.377 481.096 261.414C481.29 261.216 481.483 261.019 481.682 260.816C482.847 259.633 484.032 258.472 485.243 257.332C485.967 256.625 486.635 255.877 487.309 255.127C487.797 254.601 488.303 254.106 488.827 253.613C489.529 252.952 490.187 252.274 490.828 251.558C491.582 250.72 492.369 249.932 493.192 249.155C493.997 248.395 494.767 247.627 495.502 246.805C496.522 245.665 497.631 244.623 498.746 243.569C499.538 242.8 500.274 241.998 501.008 241.177C501.636 240.496 502.31 239.867 502.987 239.231C503.507 238.724 503.993 238.203 504.477 237.665C506.234 235.732 508.08 233.877 509.926 232.022C510.109 231.836 510.293 231.651 510.482 231.46C516.112 225.793 518.905 226.155 519.907 226.315Z" fill="white"/>
<path d="M529.716 286.029C529.908 286.029 530.1 286.029 530.298 286.029C530.298 286.213 530.298 286.397 530.298 286.587C530.106 286.587 529.914 286.587 529.716 286.587C529.638 286.765 529.56 286.943 529.479 287.126C529.134 287.701 529.134 287.701 528.261 287.98C528.261 287.796 528.261 287.612 528.261 287.422C528.453 287.422 528.645 287.422 528.843 287.422C528.978 287.155 528.978 287.155 529.116 286.883C529.425 286.308 529.425 286.308 529.716 286.029Z" fill="white"/>
</svg>
